<svg id="visual" viewBox="0 0 900 600" width="900" height="600" xmlns="http://www.w3.org/2000/svg" xmlns:xlink="http://www.w3.org/1999/xlink" version="1.1"><rect x="0" y="0" width="900" height="600" fill="#CDF7F6"></rect><defs><linearGradient id="grad1_0" x1="33.3%" y1="100%" x2="100%" y2="0%"><stop offset="20%" stop-color="#CDF7F6" stop-opacity="1"></stop><stop offset="80%" stop-color="#CDF7F6" stop-opacity="1"></stop></linearGradient></defs><defs><linearGradient id="grad2_0" x1="0%" y1="100%" x2="66.7%" y2="0%"><stop offset="20%" stop-color="#CDF7F6" stop-opacity="1"></stop><stop offset="80%" stop-color="#CDF7F6" stop-opacity="1"></stop></linearGradient></defs><g transform="translate(900, 600)"><path d="M-270.4 0C-263.6 -47.8 -256.8 -95.5 -234.2 -135.2C-211.6 -174.9 -173.2 -206.6 -131.5 -227.8C-89.8 -249 -44.9 -259.7 0 -270.4L0 0Z" fill="#2ebfa5"></path></g><g transform="translate(0, 0)"><path d="M270.4 0C263.8 48.1 257.2 96.2 234.2 135.2C211.2 174.2 171.8 204.1 130 225.2C88.2 246.2 44.1 258.3 0 270.4L0 0Z" fill="#2ebfa5"></path></g></svg>
