<?xml version="1.0" standalone="no"?>
<svg viewBox="0 0 200 200" xmlns="http://www.w3.org/2000/svg">
  <path fill="#1f1f1f" d="M48.5,-69.7C60.8,-57.9,67.2,-40.9,69.7,-24.6C72.2,-8.4,70.9,7.1,66.5,21.9C62.1,36.7,54.7,50.8,43,58.6C31.4,66.4,15.7,68,-0.9,69.2C-17.5,70.4,-34.9,71.2,-49.8,64.5C-64.8,57.8,-77.2,43.4,-84.2,26.3C-91.1,9.2,-92.7,-10.7,-84.2,-24.4C-75.7,-38.1,-57.1,-45.5,-41.4,-56.2C-25.7,-66.9,-12.8,-80.8,2.7,-84.5C18.1,-88.1,36.3,-81.5,48.5,-69.7Z" transform="translate(100 100)" />
</svg>
