<?xml version="1.0" standalone="no"?>
<svg xmlns="http://www.w3.org/2000/svg" xmlns:xlink="http://www.w3.org/1999/xlink" height="500px" width="500px">
  <defs>
    <pattern id="doodad" width="50" height="50" viewBox="0 0 40 40" patternUnits="userSpaceOnUse" patternTransform="rotate(135)">
      <rect width="100%" height="100%" 
      fill="#303030"
      />
      <path d="M0 9a 11 11 0 0 1 11 11a 9 9 0 0 0 9 9v2a-11-11 0 0 1-11-11a-9-9 0 0 0-9-9z" fill="#2ebfa5"/>
      <path d="M20 29.5a 9.5-9.5 0 0 0 9.5-9.5a 10.5-10.5 0 0 1 10.5-10.5v1a-9.5 9.5 0 0 0-9.5 9.5a-10.5 10.5 0 0 1-10.5 10.5zM20 69.5a 9.5-9.5 0 0 0 9.5-9.5a 10.5-10.5 0 0 1 10.5-10.5v1a-9.5 9.5 0 0 0-9.5 9.5a-10.5 10.5 0 0 1-10.5 10.5z" fill="rgba(129, 230, 217,1)"/>
    </pattern>
  </defs>
  <rect fill="url(#doodad)" height="200%" width="200%"/>
</svg>
