<?xml version="1.0" standalone="no"?><svg xmlns="http://www.w3.org/2000/svg" viewBox="0 0 1440 320"><path fill="#3083dc" fill-opacity="1" d="M0,224L0,192L36.9,192L36.9,192L73.8,192L73.8,64L110.8,64L110.8,64L147.7,64L147.7,32L184.6,32L184.6,64L221.5,64L221.5,128L258.5,128L258.5,96L295.4,96L295.4,320L332.3,320L332.3,320L369.2,320L369.2,32L406.2,32L406.2,64L443.1,64L443.1,256L480,256L480,96L516.9,96L516.9,32L553.8,32L553.8,0L590.8,0L590.8,192L627.7,192L627.7,320L664.6,320L664.6,320L701.5,320L701.5,64L738.5,64L738.5,288L775.4,288L775.4,288L812.3,288L812.3,224L849.2,224L849.2,256L886.2,256L886.2,32L923.1,32L923.1,160L960,160L960,256L996.9,256L996.9,128L1033.8,128L1033.8,288L1070.8,288L1070.8,128L1107.7,128L1107.7,96L1144.6,96L1144.6,32L1181.5,32L1181.5,256L1218.5,256L1218.5,192L1255.4,192L1255.4,128L1292.3,128L1292.3,192L1329.2,192L1329.2,256L1366.2,256L1366.2,64L1403.1,64L1403.1,128L1440,128L1440,0L1403.1,0L1403.1,0L1366.2,0L1366.2,0L1329.2,0L1329.2,0L1292.3,0L1292.3,0L1255.4,0L1255.4,0L1218.5,0L1218.5,0L1181.5,0L1181.5,0L1144.6,0L1144.6,0L1107.7,0L1107.7,0L1070.8,0L1070.8,0L1033.8,0L1033.8,0L996.9,0L996.9,0L960,0L960,0L923.1,0L923.1,0L886.2,0L886.2,0L849.2,0L849.2,0L812.3,0L812.3,0L775.4,0L775.4,0L738.5,0L738.5,0L701.5,0L701.5,0L664.6,0L664.6,0L627.7,0L627.7,0L590.8,0L590.8,0L553.8,0L553.8,0L516.9,0L516.9,0L480,0L480,0L443.1,0L443.1,0L406.2,0L406.2,0L369.2,0L369.2,0L332.3,0L332.3,0L295.4,0L295.4,0L258.5,0L258.5,0L221.5,0L221.5,0L184.6,0L184.6,0L147.7,0L147.7,0L110.8,0L110.8,0L73.8,0L73.8,0L36.9,0L36.9,0L0,0L0,0Z"></path></svg>